<svg width="62" height="62" viewBox="0 0 62 62" fill="none" xmlns="http://www.w3.org/2000/svg">
<path d="M51 0C53.9174 0 56.7154 1.15878 58.7783 3.22168C60.8412 5.28458 62 8.08262 62 11V51C62 53.9174 60.8412 56.7154 58.7783 58.7783C56.7154 60.8412 53.9174 62 51 62H11C8.08262 62 5.28458 60.8412 3.22168 58.7783C1.15878 56.7154 0 53.9174 0 51V11C0 8.08262 1.15878 5.28458 3.22168 3.22168C5.28458 1.15878 8.08262 0 11 0H51ZM11 6C9.67392 6 8.40253 6.52716 7.46484 7.46484C6.52716 8.40253 6 9.67392 6 11V51C6 52.3261 6.52716 53.5975 7.46484 54.5352C8.40253 55.4728 9.67392 56 11 56H51C52.3261 56 53.5975 55.4728 54.5352 54.5352C55.4728 53.5975 56 52.3261 56 51V11C56 9.67392 55.4728 8.40253 54.5352 7.46484C53.5975 6.52716 52.3261 6 51 6H11ZM34 16V25.7998L42.4902 20.9004L45.4902 26.0996L37 31L45.4902 35.9004L42.4902 41.0996L34 36.2002V46H28V36.2002L19.5098 41.0996L16.5098 35.9004L25 31L16.5098 26.0996L19.5098 20.9004L28 25.7998V16H34Z" fill="#1048EB"/>
</svg>
