<svg width="1529" height="179" viewBox="0 0 1529 179" fill="none" xmlns="http://www.w3.org/2000/svg">
<path d="M156.839 173.22H137.234C129.694 173.22 123.662 167.273 123.662 159.839V2.97394H156.839V173.22Z" fill="white"/>
<path d="M196.804 112.259C196.804 130.845 208.868 145.713 228.473 145.713C247.324 145.713 260.143 131.588 260.143 112.259C260.143 92.9295 247.324 78.8042 228.473 78.8042C208.868 78.8042 196.804 93.6729 196.804 112.259ZM291.812 173.22H272.961C265.421 173.22 259.389 167.273 259.389 159.839C251.094 169.503 239.03 176.194 222.441 176.194C188.509 176.194 162.118 148.687 162.118 112.259C162.118 75.8305 187.755 48.3234 222.441 48.3234C239.784 48.3234 251.094 55.0143 259.389 65.4224V52.0406H291.812V173.22Z" fill="white"/>
<path d="M334.038 173.22H314.433C306.892 173.22 300.86 167.273 300.86 159.839V2.97394H334.038V173.22Z" fill="white"/>
<path d="M373.248 112.259C373.248 132.332 387.575 145.713 406.425 145.713C425.276 145.713 439.603 131.588 439.603 112.259C439.603 92.1862 425.276 78.8044 406.425 78.8044C387.575 78.8044 373.248 92.1862 373.248 112.259ZM473.535 112.259C473.535 149.431 444.881 176.194 406.425 176.194C367.97 176.194 339.316 148.687 339.316 112.259C339.316 75.0872 367.97 48.3236 406.425 48.3236C444.881 47.5802 473.535 75.0872 473.535 112.259Z" fill="white"/>
<path d="M678.632 98.1337V176.194H659.027C651.487 176.194 645.454 170.247 645.454 162.813V109.285C645.454 91.4428 636.406 81.7782 621.325 81.7782C606.999 81.7782 594.934 90.6994 594.934 109.285V176.194H575.329C567.789 176.194 561.756 170.247 561.756 162.813V109.285C561.756 91.4428 552.708 81.7782 537.627 81.7782C523.3 81.7782 511.236 90.6994 511.236 109.285V176.194H491.631C484.09 176.194 478.058 170.247 478.058 162.813V54.2711H510.482V68.3964C519.53 55.758 533.103 50.554 546.676 50.554C564.773 50.554 579.099 58.7317 587.394 71.3701C597.196 55.758 613.031 50.554 629.62 50.554C659.027 50.554 678.632 69.8833 678.632 98.1337Z" fill="white"/>
<path d="M109.335 75.8306C106.319 82.5216 98.7788 85.4953 91.9925 82.5215C82.19 78.8044 70.1255 75.0872 57.3068 75.0872C44.4882 75.0872 38.4559 79.5478 38.4559 85.4953C38.4559 92.9296 45.2422 94.4165 56.5528 96.6468L71.6335 98.8771C98.7788 101.851 118.384 114.489 118.384 137.536C117.63 162.812 97.2708 177.681 55.0447 176.938C38.4559 176.938 17.3428 171.734 0 161.326L11.3106 136.049C19.605 140.509 36.1938 149.431 55.0447 149.431C73.1416 149.431 82.944 146.457 82.944 137.536C82.944 128.614 70.8795 127.871 55.0447 125.641L47.5043 124.897C11.3106 118.95 2.26213 105.568 2.26213 86.2387C3.01617 60.9619 27.1454 47.5801 55.7988 48.3236C78.4199 49.067 97.2707 54.2711 113.106 62.4488L109.335 75.8306Z" fill="white"/>
<path d="M1524.8 154.328L1528.87 157.921C1518.81 171.575 1503 179 1485.04 179C1452.7 179 1428.03 156.245 1428.03 117.201C1428.03 78.6366 1452.7 55.8812 1485.04 55.8812C1501.57 55.8812 1515.94 62.109 1526 73.3669L1522.17 77.1994C1512.58 66.4205 1499.17 60.4322 1485.04 60.4322C1457.49 60.4322 1433.06 81.511 1433.06 117.201C1433.06 153.37 1457.49 174.449 1484.8 174.449C1500.85 174.449 1514.98 167.263 1524.8 154.328Z" fill="#1048EB"/>
<path d="M1382.99 32.1676C1375.09 32.1676 1368.62 26.8979 1368.62 18.5143C1368.62 10.1308 1375.09 4.86108 1382.99 4.86108C1390.9 4.86108 1397.37 10.1308 1397.37 18.5143C1397.37 26.8979 1390.9 32.1676 1382.99 32.1676ZM1372.69 176.126V53.9649H1393.29V176.126H1372.69Z" fill="#1048EB"/>
<path d="M1313.87 73.846V53.965H1334.47V176.126H1314.83V155.526C1304.29 170.377 1288 179 1268.84 179C1236.26 179 1210.87 153.61 1210.87 115.524C1210.87 76.9599 1236.26 51.3301 1268.84 51.3301C1287.28 51.3301 1303.33 59.4742 1313.87 73.846ZM1273.63 161.514C1299.26 161.514 1315.31 143.55 1315.31 115.524C1315.31 87.0202 1299.26 69.295 1273.63 69.295C1248.24 69.295 1232.19 87.0202 1232.19 115.524C1232.19 143.55 1248.24 161.514 1273.63 161.514Z" fill="#1048EB"/>
<path d="M1111.65 162.233L1115.72 158.879C1122.91 167.982 1134.17 174.449 1149.5 174.449C1169.86 174.449 1183.03 163.91 1183.03 146.663C1183.03 107.859 1118.12 125.585 1118.12 85.3435C1118.12 65.9415 1132.73 55.8812 1152.85 55.8812C1167.22 55.8812 1176.32 61.1508 1183.75 70.9716L1180.64 74.0855C1174.17 66.4205 1166.5 60.4322 1152.37 60.4322C1135.84 60.4322 1122.43 68.5763 1122.43 84.8644C1122.43 121.034 1187.82 102.829 1187.82 145.945C1187.82 165.826 1174.89 178.76 1149.26 178.76C1132.01 178.76 1120.51 172.533 1111.65 162.233Z" fill="#1048EB"/>
<path d="M1031.24 179C998.904 179 974.232 156.005 974.232 117.201C974.232 78.8761 998.904 55.8812 1031.24 55.8812C1063.34 55.8812 1088.01 78.8761 1088.01 117.201C1088.01 156.005 1063.34 179 1031.24 179ZM1031.24 174.209C1058.79 174.209 1082.98 153.131 1082.98 117.201C1082.98 81.511 1058.79 60.4322 1031.24 60.4322C1003.69 60.4322 979.262 81.511 979.262 117.201C979.262 153.131 1003.69 174.209 1031.24 174.209Z" fill="#1048EB"/>
<path d="M897.339 55.8812C919.615 55.8812 936.143 70.4925 936.143 100.194V176.126H931.592V100.434C931.592 72.6483 914.825 60.6718 896.62 60.6718C870.512 60.6718 852.547 84.3853 852.547 107.38V176.126H847.996V100.434C847.996 72.6483 830.749 60.6718 813.264 60.6718C786.436 60.6718 767.513 84.3853 767.513 107.38V176.126H762.723V58.7555H767.513V89.4155C773.741 70.253 790.987 55.8812 813.743 55.8812C832.905 55.8812 848.475 67.3786 851.828 90.3736C857.577 70.7321 874.344 55.8812 897.339 55.8812Z" fill="#1048EB"/>
</svg>
