<svg width="1662" height="194" viewBox="0 0 1662 194" fill="none" xmlns="http://www.w3.org/2000/svg">
<path d="M168.18 188.163H147.157C139.072 188.163 132.603 181.779 132.603 173.799V5.42614H168.18V188.163Z" fill="white"/>
<path d="M211.034 122.729C211.034 142.678 223.971 158.638 244.993 158.638C265.207 158.638 278.953 143.476 278.953 122.729C278.953 101.981 265.207 86.8197 244.993 86.8197C223.971 86.8197 211.034 102.779 211.034 122.729ZM312.912 188.163H292.698C284.613 188.163 278.144 181.779 278.144 173.799C269.25 184.173 256.313 191.355 238.525 191.355C202.14 191.355 173.84 161.829 173.84 122.729C173.84 83.6278 201.331 54.1027 238.525 54.1027C257.122 54.1027 269.25 61.2845 278.144 72.4562V58.0926H312.912V188.163Z" fill="white"/>
<path d="M358.191 188.163H337.168C329.082 188.163 322.614 181.779 322.614 173.799V5.42614H358.191V188.163Z" fill="white"/>
<path d="M400.236 122.729C400.236 144.274 415.599 158.638 435.813 158.638C456.027 158.638 471.389 143.476 471.389 122.729C471.389 101.184 456.027 86.82 435.813 86.82C415.599 86.82 400.236 101.184 400.236 122.729ZM507.774 122.729C507.774 162.628 477.049 191.355 435.813 191.355C394.576 191.355 363.851 161.83 363.851 122.729C363.851 82.8301 394.576 54.103 435.813 54.103C477.049 53.305 507.774 82.8301 507.774 122.729Z" fill="white"/>
<path d="M727.701 107.567V191.355H706.679C698.593 191.355 692.125 184.971 692.125 176.991V119.537C692.125 100.386 682.422 90.0119 666.251 90.0119C650.888 90.0119 637.951 99.5876 637.951 119.537V191.355H616.929C608.843 191.355 602.375 184.971 602.375 176.991V119.537C602.375 100.386 592.672 90.0119 576.501 90.0119C561.138 90.0119 548.201 99.5876 548.201 119.537V191.355H527.179C519.093 191.355 512.625 184.971 512.625 176.991V60.4868H547.393V75.6483C557.095 62.0827 571.65 56.4969 586.204 56.4969C605.609 56.4969 620.972 65.2746 629.866 78.8402C640.377 62.0827 657.357 56.4969 675.145 56.4969C706.679 56.4969 727.701 77.2443 727.701 107.567Z" fill="white"/>
<path d="M117.241 83.628C114.007 90.8098 105.921 94.0017 98.6441 90.8098C88.1328 86.8199 75.196 82.83 61.4505 82.83C47.705 82.83 41.2365 87.6179 41.2365 94.0017C41.2365 101.981 48.5135 103.577 60.6419 105.971L76.813 108.365C105.921 111.557 126.944 125.123 126.944 149.86C126.135 176.991 104.304 192.951 59.0248 192.153C41.2365 192.153 18.5968 186.567 0 175.395L12.1284 148.264C21.0225 153.052 38.8108 162.628 59.0248 162.628C78.4302 162.628 88.9414 159.436 88.9414 149.86C88.9414 140.284 76.0045 139.486 59.0248 137.092L50.9392 136.294C12.1284 129.911 2.4257 115.547 2.4257 94.7997C3.23426 67.6685 29.1082 53.3049 59.8334 54.1029C84.0901 54.9008 104.304 60.4867 121.284 69.2644L117.241 83.628Z" fill="white"/>
<path d="M967.41 59.5344C992.886 59.5344 1009.87 76.2143 1009.87 107.008V190.921H996.489V110.344C996.489 84.4259 981.563 71.8519 962.777 71.8519C938.587 71.8519 920.831 92.6376 920.831 117.272V190.921H907.449V110.344C907.449 84.4259 892.523 71.8519 873.994 71.8519C849.289 71.8519 831.018 92.6376 831.018 117.272V190.921H817.379V62.6138H830.503V89.5582C839.253 71.082 856.752 59.5344 878.369 59.5344C899.214 59.5344 914.654 70.8254 919.287 91.8677C927.264 72.1085 945.021 59.5344 967.41 59.5344Z" fill="#1048EB"/>
<path d="M1111.22 194C1074.93 194 1046.63 168.082 1046.63 126.511C1046.63 85.4524 1074.93 59.5344 1111.22 59.5344C1147.25 59.5344 1175.3 85.4524 1175.3 126.511C1175.3 168.082 1147.25 194 1111.22 194ZM1111.22 181.683C1138.5 181.683 1161.4 161.153 1161.4 126.511C1161.4 92.381 1138.5 71.5952 1111.22 71.5952C1083.68 71.5952 1060.78 92.381 1060.78 126.511C1060.78 161.153 1083.68 181.683 1111.22 181.683Z" fill="#1048EB"/>
<path d="M1197.54 175.267L1206.29 165.003C1214.53 174.497 1226.88 181.683 1242.84 181.683C1260.85 181.683 1273.2 172.958 1273.2 158.074C1273.2 123.431 1205.01 138.315 1205.01 94.6905C1205.01 71.3386 1223.54 59.5344 1246.18 59.5344C1263.68 59.5344 1274.75 65.4365 1283.5 76.4709L1275 85.709C1267.54 77.4974 1259.56 71.5952 1245.92 71.5952C1229.97 71.5952 1218.9 79.5503 1218.9 92.8942C1218.9 125.741 1287.36 110.087 1287.36 156.021C1287.36 178.09 1271.4 193.743 1241.81 193.743C1221.48 193.743 1207.07 186.302 1197.54 175.267Z" fill="#1048EB"/>
<path d="M1415.45 75.9577V56.1984H1449.93V190.921H1415.96V170.905C1405.41 185.275 1389.2 194 1368.87 194C1331.56 194 1307.11 164.489 1307.11 123.944C1307.11 83.1429 1331.56 53.3757 1368.87 53.3757C1388.69 53.3757 1404.9 61.8439 1415.45 75.9577ZM1380.71 163.976C1403.1 163.976 1416.48 147.553 1416.48 123.944C1416.48 99.8228 1403.1 83.6561 1380.71 83.6561C1358.58 83.6561 1344.42 99.8228 1344.42 123.944C1344.42 147.553 1358.58 163.976 1380.71 163.976Z" fill="#1048EB"/>
<path d="M1499.7 40.2884C1487.09 40.2884 1476.79 33.1032 1476.79 20.0159C1476.79 7.18519 1487.09 0 1499.7 0C1512.05 0 1522.34 7.18519 1522.34 20.0159C1522.34 33.1032 1512.05 40.2884 1499.7 40.2884ZM1481.68 190.921V56.1984H1517.71V190.921H1481.68Z" fill="#1048EB"/>
<path d="M1651.71 161.41L1662 169.108C1651.45 184.762 1633.18 194 1611.56 194C1575.79 194 1547.74 169.108 1547.74 126.511C1547.74 84.4259 1575.79 59.5344 1611.56 59.5344C1631.38 59.5344 1648.62 67.2328 1659.43 80.5767L1649.65 89.5582C1641.67 79.2936 1628.29 71.8519 1612.33 71.8519C1585.31 71.8519 1561.89 91.8677 1561.89 126.511C1561.89 161.923 1585.31 181.426 1612.08 181.426C1629.32 181.426 1643.47 172.958 1651.71 161.41Z" fill="#1048EB"/>
</svg>
